<svg xmlns="http://www.w3.org/2000/svg" xmlns:xlink="http://www.w3.org/1999/xlink" width="500" zoomAndPan="magnify" viewBox="0 0 375 374.999991" height="500" preserveAspectRatio="xMidYMid meet" version="1.0"><defs><g/><clipPath id="b7e223416c"><path d="M 16.082031 156.023438 L 113.582031 156.023438 L 113.582031 225.773438 L 16.082031 225.773438 Z M 16.082031 156.023438 " clip-rule="nonzero"/></clipPath></defs><rect x="-37.5" width="450" fill="#ffffff" y="-37.499999" height="449.999989" fill-opacity="1"/><rect x="-37.5" width="450" fill="#ffffff" y="-37.499999" height="449.999989" fill-opacity="1"/><rect x="-37.5" width="450" fill="#ffffff" y="-37.499999" height="449.999989" fill-opacity="1"/><g fill="#5ac278" fill-opacity="1"><g transform="translate(124.246564, 204.621001)"><g><path d="M 11.046875 0 L 2.671875 0 L 2.671875 -27.078125 L 11.046875 -27.078125 Z M 11.046875 0 "/></g></g></g><g fill="#5ac278" fill-opacity="1"><g transform="translate(136.352757, 204.621001)"><g><path d="M 30 0.453125 C 29.457031 0.453125 28.921875 0.363281 28.390625 0.1875 C 27.867188 0.0078125 27.285156 -0.390625 26.640625 -1.015625 L 10.046875 -15.90625 L 10.046875 0 L 2.421875 0 L 2.421875 -22.46875 C 2.421875 -23.363281 2.550781 -24.132812 2.8125 -24.78125 C 3.070312 -25.425781 3.410156 -25.953125 3.828125 -26.359375 C 4.242188 -26.765625 4.726562 -27.0625 5.28125 -27.25 C 5.832031 -27.4375 6.40625 -27.53125 7 -27.53125 C 7.507812 -27.53125 8.03125 -27.441406 8.5625 -27.265625 C 9.09375 -27.085938 9.691406 -26.691406 10.359375 -26.078125 L 26.96875 -11.171875 L 26.96875 -27.078125 L 34.609375 -27.078125 L 34.609375 -4.65625 C 34.609375 -3.757812 34.476562 -2.988281 34.21875 -2.34375 C 33.96875 -1.695312 33.632812 -1.164062 33.21875 -0.75 C 32.800781 -0.332031 32.304688 -0.03125 31.734375 0.15625 C 31.171875 0.351562 30.59375 0.453125 30 0.453125 Z M 30 0.453125 "/></g></g></g><g fill="#5ac278" fill-opacity="1"><g transform="translate(171.740167, 204.621001)"><g><path d="M 36.1875 -27.078125 L 30.765625 -20.046875 L 21.09375 -20.046875 L 21.09375 0 L 12.71875 0 L 12.71875 -20.046875 L 0 -20.046875 L 5.421875 -27.078125 Z M 36.1875 -27.078125 "/></g></g></g><g fill="#5ac278" fill-opacity="1"><g transform="translate(206.317799, 204.621001)"><g><path d="M 40.96875 0 L 29.75 0 L 23.71875 -7.171875 L 10.84375 -7.171875 L 10.84375 0 L 2.46875 0 L 2.46875 -13.84375 L 26.03125 -13.84375 C 27.320312 -13.84375 28.410156 -14.113281 29.296875 -14.65625 C 30.191406 -15.195312 30.640625 -15.9375 30.640625 -16.875 C 30.640625 -17.925781 30.234375 -18.71875 29.421875 -19.25 C 28.617188 -19.78125 27.488281 -20.046875 26.03125 -20.046875 L 2.46875 -20.046875 L 7.9375 -27.078125 L 25.34375 -27.078125 C 26.882812 -27.078125 28.476562 -26.9375 30.125 -26.65625 C 31.769531 -26.375 33.265625 -25.867188 34.609375 -25.140625 C 35.960938 -24.410156 37.078125 -23.425781 37.953125 -22.1875 C 38.828125 -20.945312 39.265625 -19.351562 39.265625 -17.40625 C 39.265625 -16.351562 39.101562 -15.351562 38.78125 -14.40625 C 38.457031 -13.46875 37.988281 -12.617188 37.375 -11.859375 C 36.769531 -11.109375 36.03125 -10.46875 35.15625 -9.9375 C 34.28125 -9.414062 33.289062 -9.046875 32.1875 -8.828125 C 32.644531 -8.472656 33.15625 -8.023438 33.71875 -7.484375 C 34.289062 -6.953125 35.046875 -6.210938 35.984375 -5.265625 Z M 40.96875 0 "/></g></g></g><g fill="#5ac278" fill-opacity="1"><g transform="translate(246.118527, 204.621001)"><g><path d="M 34 -6.96875 L 28.625 0 L 2.546875 0 L 2.546875 -27.078125 L 33.921875 -27.078125 L 28.5 -20.046875 L 10.96875 -20.046875 L 10.96875 -16.796875 L 32.421875 -16.796875 L 27.609375 -10.640625 L 10.96875 -10.640625 L 10.96875 -6.96875 Z M 34 -6.96875 "/></g></g></g><g fill="#5ac278" fill-opacity="1"><g transform="translate(278.833655, 204.621001)"><g><path d="M 38.296875 -16.921875 C 38.296875 -15.410156 38 -14.039062 37.40625 -12.8125 C 36.8125 -11.582031 35.941406 -10.535156 34.796875 -9.671875 C 33.648438 -8.804688 32.253906 -8.128906 30.609375 -7.640625 C 28.960938 -7.160156 27.085938 -6.921875 24.984375 -6.921875 L 10.8125 -6.921875 L 10.8125 0 L 2.46875 0 L 2.46875 -13.84375 L 25.78125 -13.84375 C 27.082031 -13.84375 28.085938 -14.125 28.796875 -14.6875 C 29.515625 -15.257812 29.875 -16.019531 29.875 -16.96875 C 29.875 -17.90625 29.515625 -18.648438 28.796875 -19.203125 C 28.085938 -19.765625 27.082031 -20.046875 25.78125 -20.046875 L 2.46875 -20.046875 L 8.015625 -27.078125 L 25.015625 -27.078125 C 27.117188 -27.078125 28.992188 -26.828125 30.640625 -26.328125 C 32.285156 -25.835938 33.675781 -25.144531 34.8125 -24.25 C 35.945312 -23.363281 36.8125 -22.296875 37.40625 -21.046875 C 38 -19.804688 38.296875 -18.429688 38.296875 -16.921875 Z M 38.296875 -16.921875 "/></g></g></g><g fill="#5ac278" fill-opacity="1"><g transform="translate(317.217253, 204.621001)"><g><path d="M 11.046875 0 L 2.671875 0 L 2.671875 -27.078125 L 11.046875 -27.078125 Z M 11.046875 0 "/></g></g></g><g fill="#5ac278" fill-opacity="1"><g transform="translate(329.323453, 204.621001)"><g><path d="M 37 -13.8125 C 37 -11.832031 36.585938 -10 35.765625 -8.3125 C 34.941406 -6.632812 33.804688 -5.179688 32.359375 -3.953125 C 30.921875 -2.722656 29.203125 -1.753906 27.203125 -1.046875 C 25.203125 -0.347656 23.03125 0 20.6875 0 L 2.546875 0 L 2.546875 -16.875 L 10.96875 -16.875 L 10.96875 -6.96875 L 20.6875 -6.96875 C 21.84375 -6.96875 22.914062 -7.117188 23.90625 -7.421875 C 24.894531 -7.734375 25.738281 -8.171875 26.4375 -8.734375 C 27.132812 -9.304688 27.6875 -9.988281 28.09375 -10.78125 C 28.5 -11.582031 28.703125 -12.46875 28.703125 -13.4375 C 28.703125 -14.382812 28.5 -15.257812 28.09375 -16.0625 C 27.6875 -16.875 27.117188 -17.570312 26.390625 -18.15625 C 25.660156 -18.738281 24.8125 -19.195312 23.84375 -19.53125 C 22.875 -19.875 21.820312 -20.046875 20.6875 -20.046875 L 2.546875 -20.046875 L 7.890625 -27.078125 L 20.6875 -27.078125 C 23.0625 -27.078125 25.242188 -26.753906 27.234375 -26.109375 C 29.234375 -25.460938 30.957031 -24.550781 32.40625 -23.375 C 33.851562 -22.207031 34.976562 -20.804688 35.78125 -19.171875 C 36.59375 -17.535156 37 -15.75 37 -13.8125 Z M 37 -13.8125 "/></g></g></g><g clip-path="url(#b7e223416c)"><path fill="#5ac278" d="M 111.492188 187.652344 L 63.253906 156.578125 C 62.726562 156.234375 62.144531 156.050781 61.515625 156.027344 C 60.886719 156.003906 60.292969 156.144531 59.738281 156.445312 C 59.1875 156.75 58.75 157.171875 58.425781 157.714844 C 58.105469 158.257812 57.941406 158.84375 57.941406 159.476562 L 57.941406 179.789062 L 21.910156 156.578125 C 21.382812 156.234375 20.800781 156.050781 20.171875 156.027344 C 19.542969 156.003906 18.949219 156.144531 18.394531 156.445312 C 17.84375 156.75 17.40625 157.171875 17.082031 157.714844 C 16.761719 158.257812 16.597656 158.84375 16.597656 159.476562 L 16.597656 221.628906 C 16.597656 222.261719 16.761719 222.851562 17.082031 223.394531 C 17.40625 223.9375 17.84375 224.359375 18.394531 224.660156 C 18.949219 224.964844 19.542969 225.101562 20.171875 225.078125 C 20.800781 225.054688 21.382812 224.875 21.910156 224.53125 L 57.941406 201.320312 L 57.941406 221.628906 C 57.941406 222.261719 58.105469 222.851562 58.425781 223.394531 C 58.75 223.9375 59.1875 224.359375 59.738281 224.660156 C 60.292969 224.964844 60.886719 225.101562 61.515625 225.078125 C 62.144531 225.054688 62.726562 224.875 63.253906 224.53125 L 111.492188 193.453125 C 111.730469 193.296875 111.949219 193.113281 112.148438 192.902344 C 112.34375 192.691406 112.507812 192.457031 112.648438 192.207031 C 112.785156 191.953125 112.890625 191.683594 112.960938 191.40625 C 113.03125 191.125 113.066406 190.84375 113.066406 190.554688 C 113.066406 190.265625 113.03125 189.980469 112.960938 189.703125 C 112.890625 189.421875 112.785156 189.15625 112.648438 188.902344 C 112.507812 188.648438 112.34375 188.417969 112.148438 188.207031 C 111.949219 187.992188 111.730469 187.808594 111.492188 187.652344 Z M 23.488281 165.804688 L 61.90625 190.554688 L 23.488281 215.304688 Z M 64.832031 215.304688 L 64.832031 196.878906 L 70.144531 193.453125 C 70.386719 193.296875 70.605469 193.113281 70.800781 192.902344 C 71 192.691406 71.164062 192.457031 71.304688 192.207031 C 71.441406 191.953125 71.542969 191.683594 71.617188 191.40625 C 71.6875 191.125 71.722656 190.84375 71.722656 190.554688 C 71.722656 190.265625 71.6875 189.980469 71.617188 189.703125 C 71.542969 189.421875 71.441406 189.15625 71.304688 188.902344 C 71.164062 188.648438 71 188.417969 70.800781 188.207031 C 70.605469 187.992188 70.386719 187.808594 70.144531 187.652344 L 64.832031 184.226562 L 64.832031 165.804688 L 103.25 190.554688 Z M 64.832031 215.304688 " fill-opacity="1" fill-rule="nonzero"/></g></svg>