<?xml version="1.0" encoding="UTF-8"?>
<svg xmlns="http://www.w3.org/2000/svg" xmlns:xlink="http://www.w3.org/1999/xlink" width="375pt" height="374.999991pt" viewBox="0 0 375 374.999991" version="1.2">
<defs>
<clipPath id="clip1">
  <path d="M 25 70.855469 L 350 70.855469 L 350 302 L 25 302 Z M 25 70.855469 "/>
</clipPath>
</defs>
<g id="surface1">
<rect x="0" y="0" width="375" height="374.999991" style="fill:rgb(100%,100%,100%);fill-opacity:1;stroke:none;"/>
<rect x="0" y="0" width="375" height="374.999991" style="fill:rgb(100%,100%,100%);fill-opacity:1;stroke:none;"/>
<g clip-path="url(#clip1)" clip-rule="nonzero">
<path style=" stroke:none;fill-rule:nonzero;fill:rgb(35.289001%,76.078796%,47.059631%);fill-opacity:1;" d="M 344.039062 176.625 L 182.28125 72.703125 C 181.410156 72.140625 180.476562 71.703125 179.488281 71.390625 C 178.5 71.078125 177.484375 70.90625 176.445312 70.867188 C 175.410156 70.828125 174.386719 70.929688 173.375 71.164062 C 172.363281 71.402344 171.402344 71.769531 170.492188 72.265625 C 169.582031 72.761719 168.75 73.371094 168.003906 74.089844 C 167.257812 74.808594 166.617188 75.613281 166.085938 76.507812 C 165.558594 77.398438 165.152344 78.34375 164.878906 79.34375 C 164.605469 80.34375 164.464844 81.363281 164.464844 82.402344 L 164.464844 150.320312 L 43.632812 72.703125 C 42.761719 72.140625 41.828125 71.703125 40.839844 71.390625 C 39.847656 71.078125 38.835938 70.90625 37.796875 70.867188 C 36.761719 70.828125 35.734375 70.929688 34.726562 71.164062 C 33.714844 71.402344 32.753906 71.769531 31.84375 72.265625 C 30.929688 72.761719 30.101562 73.371094 29.355469 74.089844 C 28.605469 74.808594 27.96875 75.613281 27.4375 76.507812 C 26.90625 77.398438 26.503906 78.34375 26.230469 79.34375 C 25.953125 80.34375 25.816406 81.363281 25.816406 82.402344 L 25.816406 290.246094 C 25.816406 291.285156 25.953125 292.304688 26.230469 293.304688 C 26.503906 294.304688 26.90625 295.25 27.4375 296.140625 C 27.96875 297.035156 28.605469 297.839844 29.355469 298.558594 C 30.101562 299.28125 30.929688 299.886719 31.84375 300.382812 C 32.753906 300.878906 33.714844 301.246094 34.726562 301.484375 C 35.734375 301.722656 36.761719 301.820312 37.796875 301.78125 C 38.835938 301.746094 39.847656 301.570312 40.839844 301.257812 C 41.828125 300.945312 42.761719 300.511719 43.632812 299.949219 L 164.464844 222.328125 L 164.464844 290.246094 C 164.464844 291.285156 164.605469 292.304688 164.878906 293.304688 C 165.152344 294.304688 165.558594 295.25 166.085938 296.140625 C 166.617188 297.035156 167.257812 297.839844 168.003906 298.558594 C 168.75 299.28125 169.582031 299.886719 170.492188 300.382812 C 171.402344 300.878906 172.363281 301.246094 173.375 301.484375 C 174.386719 301.722656 175.410156 301.820312 176.445312 301.78125 C 177.484375 301.746094 178.5 301.570312 179.488281 301.257812 C 180.476562 300.945312 181.410156 300.511719 182.28125 299.949219 L 344.039062 196.023438 C 344.445312 195.761719 344.828125 195.480469 345.199219 195.171875 C 345.566406 194.859375 345.914062 194.53125 346.242188 194.179688 C 346.566406 193.828125 346.871094 193.457031 347.152344 193.066406 C 347.433594 192.675781 347.6875 192.269531 347.917969 191.847656 C 348.148438 191.425781 348.351562 190.992188 348.527344 190.542969 C 348.703125 190.097656 348.847656 189.640625 348.96875 189.175781 C 349.085938 188.707031 349.175781 188.238281 349.234375 187.761719 C 349.296875 187.285156 349.324219 186.804688 349.324219 186.324219 C 349.324219 185.84375 349.296875 185.367188 349.234375 184.890625 C 349.175781 184.414062 349.085938 183.941406 348.96875 183.476562 C 348.847656 183.011719 348.703125 182.554688 348.527344 182.105469 C 348.351562 181.660156 348.148438 181.222656 347.917969 180.800781 C 347.6875 180.378906 347.433594 179.976562 347.152344 179.585938 C 346.871094 179.195312 346.566406 178.824219 346.242188 178.472656 C 345.914062 178.117188 345.566406 177.789062 345.199219 177.480469 C 344.828125 177.171875 344.445312 176.886719 344.039062 176.625 Z M 48.925781 103.554688 L 177.753906 186.324219 L 48.925781 269.09375 Z M 187.574219 269.09375 L 187.574219 207.480469 L 205.390625 196.023438 C 205.792969 195.761719 206.179688 195.480469 206.546875 195.171875 C 206.917969 194.859375 207.265625 194.53125 207.589844 194.179688 C 207.917969 193.828125 208.222656 193.457031 208.503906 193.066406 C 208.785156 192.675781 209.039062 192.269531 209.269531 191.847656 C 209.5 191.425781 209.699219 190.992188 209.875 190.542969 C 210.050781 190.097656 210.199219 189.640625 210.316406 189.175781 C 210.4375 188.707031 210.527344 188.238281 210.585938 187.761719 C 210.644531 187.285156 210.675781 186.804688 210.675781 186.324219 C 210.675781 185.84375 210.644531 185.367188 210.585938 184.890625 C 210.527344 184.414062 210.4375 183.941406 210.316406 183.476562 C 210.199219 183.011719 210.050781 182.554688 209.875 182.105469 C 209.699219 181.660156 209.5 181.222656 209.269531 180.800781 C 209.039062 180.378906 208.785156 179.976562 208.503906 179.585938 C 208.222656 179.195312 207.917969 178.824219 207.589844 178.472656 C 207.265625 178.117188 206.917969 177.789062 206.546875 177.480469 C 206.179688 177.171875 205.792969 176.886719 205.390625 176.625 L 187.574219 165.171875 L 187.574219 103.554688 L 316.402344 186.324219 Z M 187.574219 269.09375 "/>
</g>
</g>
</svg>
